<?xml version="1.0" encoding="iso-8859-1"?>
<!-- Uploaded to: SVG Repo, www.svgrepo.com, Generator: SVG Repo Mixer Tools -->
<svg fill="#000000" height="800px" width="800px" version="1.1" id="Layer_1" xmlns="http://www.w3.org/2000/svg" xmlns:xlink="http://www.w3.org/1999/xlink" 
	 viewBox="0 0 512 512" xml:space="preserve">
<g>
	<g>
		<path d="M256,233.232L154.342,415.525h203.316L256,233.232z M271.673,399.151h-31.347v-25.673h31.347V399.151z M240.327,358.076
			v-71.074h31.347v71.074H240.327z"/>
	</g>
</g>
<g>
	<g>
		<polygon points="433.633,23.604 433.633,39.278 433.633,54.951 433.633,95.692 480.653,95.692 496.327,95.692 512,95.692 
			512,23.604 		"/>
	</g>
</g>
<g>
	<g>
		<polygon points="0,23.604 0,95.692 15.673,95.692 31.347,95.692 402.286,95.692 402.286,54.951 402.286,39.278 402.286,23.604 		
			"/>
	</g>
</g>
<g>
	<g>
		<path d="M496.327,127.039h-15.673H31.347H15.673H0v361.357h512V127.039H496.327z M100.969,446.871L256,168.876l155.031,277.995
			H100.969z"/>
	</g>
</g>
</svg>